<?xml version="1.0" encoding="utf-8"?>
<!-- Generator: Adobe Illustrator 18.1.1, SVG Export Plug-In . SVG Version: 6.00 Build 0)  -->
<!DOCTYPE svg PUBLIC "-//W3C//DTD SVG 1.1//EN" "http://www.w3.org/Graphics/SVG/1.1/DTD/svg11.dtd">
<svg version="1.1" id="Layer_1" xmlns="http://www.w3.org/2000/svg" xmlns:xlink="http://www.w3.org/1999/xlink" x="0px" y="0px"
	 width="242.9px" height="242.7px" viewBox="0 0 242.9 242.7" enable-background="new 0 0 242.9 242.7" xml:space="preserve">
<g>
	<path fill="none" d="M108.9,234.6c-47.3,0-94.7,0-142,0c0-100.3,0-200.7,0-301c101.7,0,203.3,0,305,0c0,100.3,0,200.7,0,301
		c-49.2,0-98.3,0-147.5,0c0.5-0.1,1-0.2,1.6-0.3c4.7-0.5,9.3-0.9,14-1.5c1.1-0.1,2.3-0.7,3.1-1.5c12.4-12.5,24.1-25.4,35-39.2
		c19.5-24.9,35.7-51.8,47.2-81.4c7-18.2,11.8-37,11.5-56.7c-0.1-12.5-3.5-24-11.6-33.8c-7.5-9-17.1-14.3-28.7-15.4
		c-11.6-1.1-22.6,1.7-32.6,7.5c-10.7,6.2-20.1,14.2-28.6,23.1c-2.4,2.5-4.6,5.1-7.3,8c1.9,0,3.3,0,5.1,0c-1.4,1.2-2.4,2.2-3.5,3.1
		c-0.8,0.7-1,1.3-0.6,2.3c1.5,4,3,8.1,4.4,12.1c1.3,3.5,2.5,6.9,3.9,10.5c3.4-4.1,6.5-8.2,9.9-12.1c7.4-8.3,15.2-16.2,24.5-22.5
		c6-4.1,12.4-7.1,19.9-7.6c5.9-0.4,15,4.3,17.5,10.6c2.4,6.2,3.2,12.7,3.1,19.2c-0.1,8.4-1.8,16.5-3.9,24.6
		c-5.5,20.7-14.6,39.7-25.4,58.1c-18.7,31.8-42.9,59.1-70,83.9c-3,2.7-5.9,5.4-9.1,8.3C105.3,234.2,107.1,234.4,108.9,234.6z
		 M98.7,156.9c15.9-14.1,31.6-28,47.3-42c-7.6-21-15.2-42-22.8-63c-0.3,0.2-0.5,0.3-0.6,0.4c-15.3,13.5-30.5,27-45.8,40.4
		c-0.9,0.8-0.8,1.5-0.5,2.5c5.2,14.2,10.3,28.4,15.4,42.5C94,144,96.3,150.3,98.7,156.9z M6.1,95.8c0.2,0.7,0.3,1.1,0.4,1.5
		c7.3,20.2,14.6,40.4,21.9,60.6c0.5,1.3,1.3,1.3,2.3,1.3c20,0,40,0,60,0c0.6,0,1.2,0,2,0c-0.3-0.8-0.5-1.4-0.7-2
		c-2.2-6.2-4.5-12.4-6.7-18.6c-5-13.7-9.9-27.5-14.9-41.2c-0.2-0.6-0.9-1.5-1.3-1.5C63,95.8,57,95.8,50.6,95.8
		c2.7,7.7,5.3,15.2,7.9,22.8c-2,0.7-3.9,1.4-5.8,2.1c-0.3-0.8-0.6-1.5-0.8-2.3c-2.3-6.4-4.5-12.9-6.8-19.3c-1.2-3.5-1.3-3.5-5-3.3
		c-0.1,0-0.2,0.1-0.5,0.2c2.6,7.5,5.2,15,7.9,22.6c-2,0.7-3.9,1.4-5.8,2c-0.3-0.7-0.5-1.2-0.7-1.7c-2.5-7.2-5.1-14.5-7.6-21.7
		c-0.2-0.6-0.7-1.3-1.3-1.4c-1.1-0.2-2.2-0.1-3.6-0.1c2.7,7.7,5.3,15.2,7.9,22.8c-2,0.7-3.9,1.4-5.8,2.1c-0.2-0.6-0.4-0.9-0.5-1.3
		c-2.6-7.4-5.2-14.8-7.9-22.2c-0.2-0.6-1-1.3-1.5-1.3C16,95.8,11.1,95.8,6.1,95.8z M77.7,52.9c-7.4,5.5-14.7,10.9-22,16.4
		c-0.1-0.2-0.1-0.3-0.1-0.3C62,61.6,68.3,54.3,74.6,47c0.2-0.3,0.8-0.3,1.1-0.4c0.3-0.7,0.5-1.5,1-2.1c6.3-7.9,12.6-15.8,18.8-23.6
		c2.5-3.2,5.1-6.3,7.6-9.5C100.9,9.1,98.9,7,96.8,5c-0.4-0.4-1.1-0.7-1.7-0.7c-4.6,0.2-9.2,0.5-13.8,0.9c-0.8,0.1-1.8,0.7-2.2,1.3
		C71,18,63.1,29.6,55.2,41.2c-0.5,0.7-1.1,1.4-1.8,2c-6.5,5.2-13.1,10.4-19.7,15.4c-1.5,1.2-2.2,2.5-2.4,4.3
		c-0.2,2.1-0.6,4.1-0.9,6.2c-0.5,3.2-0.9,6.3-1.4,9.5c0.3,0.1,0.4,0.2,0.6,0.2c9.4,0,18.7,0.1,28.1,0.1c0.6,0,1.3-0.4,1.7-0.8
		c5.4-4.9,10.8-9.8,16.1-14.7c1.5-1.4,3.6-2.7,3.9-4.3C79.7,57.3,78.4,55.1,77.7,52.9z M10,89.6c1.2,0,1.8,0,2.5,0
		c18.8,0,37.6,0,56.4,0c1.6,0,2.7-0.5,3.8-1.5c13.4-11.9,26.8-23.8,40.3-35.7c1-0.8,1.9-1.7,3-2.8c-11,0-21.7,0-32.5,0
		c1,3.6,1.9,7,2.9,10.4c0.4,1.2,0.1,1.8-0.8,2.6C77.7,69.7,69.9,76.9,62,83.9c-0.8,0.7-2,1.2-3,1.2C48,85.1,36.9,85,25.9,85
		c-1.4,0-2.7,0-4.2,0c0.3-2.3,0.6-4.3,0.9-6.6C18.3,82.1,14.3,85.7,10,89.6z"/>
	<path d="M108.9,234.6c-1.8-0.2-3.5-0.4-5.6-0.7c3.2-2.9,6.2-5.6,9.1-8.3c27.1-24.8,51.3-52.1,70-83.9
		c10.8-18.3,19.9-37.4,25.4-58.1c2.1-8.1,3.8-16.2,3.9-24.6c0.1-6.6-0.7-13-3.1-19.2c-2.4-6.3-11.5-11-17.5-10.6
		c-7.5,0.5-13.9,3.5-19.9,7.6c-9.3,6.3-17.1,14.1-24.5,22.5c-3.4,3.8-6.5,7.9-9.9,12.1c-1.3-3.6-2.6-7-3.9-10.5
		c-1.5-4-2.9-8.1-4.4-12.1c-0.4-1-0.2-1.7,0.6-2.3c1.1-0.9,2.1-1.9,3.5-3.1c-1.8,0-3.1,0-5.1,0c2.7-3,4.9-5.6,7.3-8
		c8.6-8.9,17.9-16.9,28.6-23.1c10.1-5.8,21-8.6,32.6-7.5c11.6,1.1,21.2,6.4,28.7,15.4c8.1,9.8,11.5,21.3,11.6,33.8
		c0.2,19.7-4.5,38.5-11.5,56.7c-11.4,29.6-27.7,56.5-47.2,81.4c-10.8,13.8-22.6,26.8-35,39.2c-0.8,0.8-2,1.4-3.1,1.5
		c-4.6,0.6-9.3,1-14,1.5c-0.5,0.1-1.1,0.2-1.6,0.3C119.2,234.6,114,234.6,108.9,234.6z"/>
	<path d="M98.7,156.9c-2.4-6.6-4.7-12.9-7-19.2c-5.1-14.2-10.3-28.4-15.4-42.5c-0.4-1-0.4-1.7,0.5-2.5
		c15.3-13.4,30.5-26.9,45.8-40.4c0.2-0.1,0.4-0.3,0.6-0.4c7.6,21.1,15.2,42,22.8,63C130.2,128.9,114.6,142.8,98.7,156.9z"/>
	<path d="M6.1,95.8c5.1,0,9.9,0,14.8,0.1c0.5,0,1.3,0.7,1.5,1.3c2.7,7.4,5.3,14.8,7.9,22.2c0.1,0.4,0.3,0.8,0.5,1.3
		c1.9-0.7,3.8-1.3,5.8-2.1c-2.6-7.6-5.2-15-7.9-22.8c1.4,0,2.5-0.2,3.6,0.1c0.5,0.1,1,0.9,1.3,1.4c2.6,7.2,5.1,14.4,7.6,21.7
		c0.2,0.5,0.4,1,0.7,1.7c1.9-0.7,3.8-1.3,5.8-2c-2.7-7.6-5.3-15.1-7.9-22.6c0.2-0.1,0.3-0.2,0.5-0.2c3.7-0.3,3.8-0.3,5,3.3
		c2.3,6.4,4.5,12.9,6.8,19.3c0.3,0.7,0.5,1.4,0.8,2.3c1.9-0.7,3.8-1.3,5.8-2.1c-2.6-7.6-5.2-15.1-7.9-22.8c6.4,0,12.4,0,18.5,0.1
		c0.5,0,1.1,0.9,1.3,1.5c5,13.7,10,27.4,14.9,41.2c2.2,6.2,4.5,12.4,6.7,18.6c0.2,0.6,0.4,1.2,0.7,2c-0.8,0-1.4,0-2,0
		c-20,0-40,0-60,0c-1,0-1.8,0-2.3-1.3c-7.3-20.2-14.6-40.4-21.9-60.6C6.4,96.9,6.3,96.5,6.1,95.8z"/>
	<path d="M77.7,52.9c0.6,2.2,2,4.4,1.6,6.2c-0.4,1.7-2.5,3-3.9,4.3c-5.3,4.9-10.7,9.8-16.1,14.7c-0.4,0.4-1.1,0.8-1.7,0.8
		c-9.4,0-18.7,0-28.1-0.1c-0.1,0-0.2-0.1-0.6-0.2c0.5-3.1,0.9-6.3,1.4-9.5c0.3-2.1,0.7-4.1,0.9-6.2c0.2-1.8,0.8-3.1,2.4-4.3
		c6.6-5,13.2-10.2,19.7-15.4c0.7-0.5,1.3-1.3,1.8-2C63.1,29.6,71,18,79,6.5c0.5-0.7,1.5-1.3,2.2-1.3c4.6-0.4,9.2-0.6,13.8-0.9
		c0.6,0,1.3,0.3,1.7,0.7c2.1,2,4.2,4.1,6.4,6.3c-2.6,3.2-5.1,6.4-7.6,9.5C89.3,28.8,83,36.6,76.7,44.5c-0.5,0.6-0.7,1.4-1,2.1
		c-0.3,0.1-0.8,0.1-1.1,0.4C68.3,54.3,62,61.6,55.7,68.9c0,0,0,0.1,0.1,0.3C63.1,63.8,70.3,58.4,77.7,52.9z"/>
	<path d="M10,89.6c4.4-3.9,8.4-7.5,12.7-11.3c-0.3,2.4-0.6,4.3-0.9,6.6c1.5,0,2.8,0,4.2,0C36.9,85,48,85.1,59,85.1
		c1,0,2.2-0.5,3-1.2c7.9-7.1,15.6-14.2,23.5-21.3c0.9-0.8,1.1-1.5,0.8-2.6c-1-3.4-1.9-6.8-2.9-10.4c10.9,0,21.5,0,32.5,0
		c-1.2,1.1-2.1,2-3,2.8C99.5,64.4,86.1,76.2,72.7,88.2c-1.2,1-2.3,1.5-3.8,1.5c-18.8,0-37.6,0-56.4,0C11.8,89.6,11.1,89.6,10,89.6z"
		/>
</g>
</svg>
